<?xml version="1.0" encoding="UTF-8" standalone="no"?>
<!-- Created with Inkscape (http://www.inkscape.org/) -->

<svg
   width="322.88501mm"
   height="168.67128mm"
   viewBox="0 0 1220.3528 637.49777"
   version="1.1"
   id="svg1"
   inkscape:version="1.3.2 (091e20ef0f, 2023-11-25)"
   sodipodi:docname="container-mode.svg"
   inkscape:export-filename="container-mode.png"
   inkscape:export-xdpi="300"
   inkscape:export-ydpi="300"
   xmlns:inkscape="http://www.inkscape.org/namespaces/inkscape"
   xmlns:sodipodi="http://sodipodi.sourceforge.net/DTD/sodipodi-0.dtd"
   xmlns="http://www.w3.org/2000/svg"
   xmlns:svg="http://www.w3.org/2000/svg">
  <sodipodi:namedview
     id="namedview1"
     pagecolor="#ffffff"
     bordercolor="#000000"
     borderopacity="0.25"
     inkscape:showpageshadow="2"
     inkscape:pageopacity="0.0"
     inkscape:pagecheckerboard="0"
     inkscape:deskcolor="#d1d1d1"
     inkscape:document-units="mm"
     inkscape:zoom="0.63490372"
     inkscape:cx="558.35238"
     inkscape:cy="159.07924"
     inkscape:window-width="1916"
     inkscape:window-height="1036"
     inkscape:window-x="1080"
     inkscape:window-y="20"
     inkscape:window-maximized="1"
     inkscape:current-layer="layer1" />
  <defs
     id="defs1">
    <marker
       style="overflow:visible"
       id="marker3"
       refX="0"
       refY="0"
       orient="auto-start-reverse"
       inkscape:stockid="Dart arrow"
       markerWidth="1"
       markerHeight="1"
       viewBox="0 0 1 1"
       inkscape:isstock="true"
       inkscape:collect="always"
       preserveAspectRatio="xMidYMid">
      <path
         style="fill:context-stroke;fill-rule:evenodd;stroke:none"
         d="M 0,0 5,-5 -12.5,0 5,5 Z"
         transform="scale(-0.5)"
         id="path3" />
    </marker>
    <marker
       style="overflow:visible"
       id="DartArrow"
       refX="0"
       refY="0"
       orient="auto-start-reverse"
       inkscape:stockid="Dart arrow"
       markerWidth="1"
       markerHeight="1"
       viewBox="0 0 1 1"
       inkscape:isstock="true"
       inkscape:collect="always"
       preserveAspectRatio="xMidYMid">
      <path
         style="fill:context-stroke;fill-rule:evenodd;stroke:none"
         d="M 0,0 5,-5 -12.5,0 5,5 Z"
         transform="scale(-0.5)"
         id="path6" />
    </marker>
    <marker
       style="overflow:visible"
       id="DartArrow-4"
       refX="0"
       refY="0"
       orient="auto-start-reverse"
       inkscape:stockid="Dart arrow"
       markerWidth="1"
       markerHeight="1"
       viewBox="0 0 1 1"
       inkscape:isstock="true"
       inkscape:collect="always"
       preserveAspectRatio="xMidYMid">
      <path
         style="fill:context-stroke;fill-rule:evenodd;stroke:none"
         d="M 0,0 5,-5 -12.5,0 5,5 Z"
         transform="scale(-0.5)"
         id="path6-0" />
    </marker>
    <marker
       style="overflow:visible"
       id="marker3-3"
       refX="0"
       refY="0"
       orient="auto-start-reverse"
       inkscape:stockid="Dart arrow"
       markerWidth="1"
       markerHeight="1"
       viewBox="0 0 1 1"
       inkscape:isstock="true"
       inkscape:collect="always"
       preserveAspectRatio="xMidYMid">
      <path
         style="fill:context-stroke;fill-rule:evenodd;stroke:none"
         d="M 0,0 5,-5 -12.5,0 5,5 Z"
         transform="scale(-0.5)"
         id="path3-9" />
    </marker>
  </defs>
  <g
     inkscape:label="Layer 1"
     inkscape:groupmode="layer"
     id="layer1"
     transform="translate(172.68198,-127.36755)">
    <rect
       style="fill:#dc3220;fill-opacity:1;stroke:#000000;stroke-width:2.49827;stroke-dasharray:none"
       id="rect1-1-8-8"
       width="213.32709"
       height="73.327072"
       x="-171.43285"
       y="324.08792"
       ry="16.869156" />
    <rect
       style="fill:#ffc02a;fill-opacity:1;stroke:#000000;stroke-width:2.49827;stroke-dasharray:none"
       id="rect1-1-8"
       width="331.34274"
       height="167.31844"
       x="205.66135"
       y="243.39148"
       ry="21.961466" />
    <rect
       style="fill:#0c7bdc;fill-opacity:1;stroke:#000000;stroke-width:2.49827;stroke-dasharray:none"
       id="rect1-1-6-2"
       width="615.88452"
       height="119.23676"
       x="336.1575"
       y="612.1626"
       ry="21.961466" />
    <rect
       style="fill:#0c7bdc;fill-opacity:1;stroke:#000000;stroke-width:2.49827;stroke-dasharray:none"
       id="rect1-1-6"
       width="616.20941"
       height="119.23679"
       x="336.1575"
       y="467.1785"
       ry="21.961466" />
    <rect
       style="fill:none;stroke:#000000;stroke-width:2.49827;stroke-dasharray:4.99654, 4.99654"
       id="rect1-1"
       width="439.508"
       height="634.99219"
       x="606.90533"
       y="128.61668"
       ry="21.961466" />
    <rect
       style="fill:none;stroke:#000000;stroke-width:2.49827;stroke-dasharray:4.99654, 4.99654"
       id="rect1-1-1"
       width="205.87425"
       height="55.527893"
       x="263.10477"
       y="333.40649"
       ry="21.961466" />
    <text
       xml:space="preserve"
       style="font-size:32px;line-height:1.25;font-family:Comfortaa;-inkscape-font-specification:Comfortaa;text-align:start;text-anchor:start;fill:#000000;fill-opacity:1;stroke:none;stroke-width:2.49827;stroke-dasharray:none"
       x="282.66235"
       y="373.23999"
       id="text1-0"><tspan
         sodipodi:role="line"
         id="tspan1-8"
         x="282.66235"
         y="373.23999"
         style="font-style:normal;font-variant:normal;font-weight:normal;font-stretch:normal;font-size:32px;font-family:'Fira Code';-inkscape-font-specification:'Fira Code';text-align:start;text-anchor:start">Forwarder</tspan></text>
    <text
       xml:space="preserve"
       style="font-size:40px;line-height:1.25;font-family:Comfortaa;-inkscape-font-specification:Comfortaa;text-align:center;text-anchor:middle;fill:#000000;fill-opacity:1;stroke:none;stroke-width:2.49827;stroke-dasharray:none"
       x="-43.606491"
       y="375.15503"
       id="text1-46"><tspan
         sodipodi:role="line"
         id="tspan1-2"
         x="-43.606491"
         y="375.15503"
         style="font-style:normal;font-variant:normal;font-weight:normal;font-stretch:normal;font-family:'Fira Code';-inkscape-font-specification:'Fira Code'">Editor</tspan></text>
    <text
       xml:space="preserve"
       style="font-size:48px;line-height:1.25;font-family:Comfortaa;-inkscape-font-specification:Comfortaa;text-align:center;text-anchor:middle;fill:#000000;fill-opacity:1;stroke:none;stroke-width:2.49827;stroke-dasharray:none"
       x="821.99121"
       y="181.36897"
       id="text1-4"><tspan
         sodipodi:role="line"
         id="tspan1-3"
         x="821.99121"
         y="181.36897"
         style="font-style:normal;font-variant:normal;font-weight:normal;font-stretch:normal;font-size:48px;font-family:'Fira Code';-inkscape-font-specification:'Fira Code'">Container</tspan></text>
    <text
       xml:space="preserve"
       style="font-size:40px;line-height:1.25;font-family:Comfortaa;-inkscape-font-specification:Comfortaa;text-align:center;text-anchor:middle;fill:#000000;fill-opacity:1;stroke:none;stroke-width:2.49827;stroke-dasharray:none"
       x="398.95023"
       y="295.45044"
       id="text1-4-0"><tspan
         sodipodi:role="line"
         id="tspan1-3-5"
         x="398.95023"
         y="295.45044"
         style="font-style:normal;font-variant:normal;font-weight:normal;font-stretch:normal;font-family:'Fira Code';-inkscape-font-specification:'Fira Code'">LSP Server</tspan></text>
    <text
       xml:space="preserve"
       style="font-size:40px;line-height:1.25;font-family:Comfortaa;-inkscape-font-specification:Comfortaa;text-align:center;text-anchor:middle;fill:#000000;fill-opacity:1;stroke:none;stroke-width:2.49827;stroke-dasharray:none"
       x="718.71368"
       y="541.21198"
       id="text1-4-8"><tspan
         sodipodi:role="line"
         id="tspan1-3-8"
         x="718.71368"
         y="541.21198"
         style="font-style:normal;font-variant:normal;font-weight:normal;font-stretch:normal;font-family:'Fira Code';-inkscape-font-specification:'Fira Code'">/src/</tspan></text>
    <text
       xml:space="preserve"
       style="font-size:40px;line-height:1.25;font-family:Comfortaa;-inkscape-font-specification:Comfortaa;text-align:center;text-anchor:middle;fill:#000000;fill-opacity:1;stroke:none;stroke-width:2.49827;stroke-dasharray:none"
       x="517.18475"
       y="541.21198"
       id="text1-4-8-6"><tspan
         sodipodi:role="line"
         id="tspan1-3-8-4"
         x="517.18475"
         y="541.21198"
         style="font-style:normal;font-variant:normal;font-weight:normal;font-stretch:normal;font-family:'Fira Code';-inkscape-font-specification:'Fira Code'">$PWD</tspan></text>
    <path
       d="m 370.11435,503.64532 c 0,-4.85606 3.94813,-8.80419 8.80419,-8.80419 h 18.1724 c 2.6275,0 5.14495,1.0455 7.00208,2.90263 l 5.90156,5.90156 h 21.7491 c 4.85606,0 8.80419,3.94813 8.80419,8.80419 v 35.21677 c 0,4.85606 -3.94813,8.80419 -8.80419,8.80419 h -52.82514 c -4.85606,0 -8.80419,-3.94813 -8.80419,-8.80419 z m 8.80419,-2.20105 c -1.21058,0 -2.20105,0.99048 -2.20105,2.20105 v 44.02096 c 0,1.21057 0.99047,2.20104 2.20105,2.20104 h 52.82514 c 1.21058,0 2.20105,-0.99047 2.20105,-2.20104 v -35.21677 c 0,-1.21057 -0.99047,-2.20104 -2.20105,-2.20104 h -22.20307 c -1.45819,0 -2.86136,-0.57778 -3.8931,-1.60952 l -6.21796,-6.23172 c -0.61904,-0.61904 -1.45819,-0.96296 -2.33861,-0.96296 z"
       id="path1"
       style="stroke-width:0.137565" />
    <text
       xml:space="preserve"
       style="font-size:40px;line-height:1.25;font-family:Comfortaa;-inkscape-font-specification:Comfortaa;text-align:center;text-anchor:middle;fill:#000000;fill-opacity:1;stroke:none;stroke-width:2.49827;stroke-dasharray:none"
       x="792.1004"
       y="686.19604"
       id="text1-4-8-4"><tspan
         sodipodi:role="line"
         id="tspan1-3-8-7"
         x="792.1004"
         y="686.19604"
         style="font-style:normal;font-variant:normal;font-weight:normal;font-stretch:normal;font-family:'Fira Code';-inkscape-font-specification:'Fira Code'">/rpmmacros/</tspan></text>
    <text
       xml:space="preserve"
       style="font-size:40px;line-height:1.25;font-family:Comfortaa;-inkscape-font-specification:Comfortaa;text-align:center;text-anchor:middle;fill:#000000;fill-opacity:1;stroke:none;stroke-width:2.49827;stroke-dasharray:none"
       x="517.18475"
       y="686.19604"
       id="text1-4-8-6-7"><tspan
         sodipodi:role="line"
         id="tspan1-3-8-4-5"
         x="517.18475"
         y="686.19604"
         style="font-style:normal;font-variant:normal;font-weight:normal;font-stretch:normal;font-family:'Fira Code';-inkscape-font-specification:'Fira Code'">$TMP</tspan></text>
    <path
       d="m 370.11435,648.62941 c 0,-4.85606 3.94813,-8.80419 8.80419,-8.80419 h 18.1724 c 2.6275,0 5.14495,1.0455 7.00208,2.90263 l 5.90156,5.90156 h 21.7491 c 4.85606,0 8.80419,3.94813 8.80419,8.80419 v 35.21677 c 0,4.85606 -3.94813,8.80419 -8.80419,8.80419 h -52.82514 c -4.85606,0 -8.80419,-3.94813 -8.80419,-8.80419 z m 8.80419,-2.20105 c -1.21058,0 -2.20105,0.99048 -2.20105,2.20105 v 44.02096 c 0,1.21057 0.99047,2.20104 2.20105,2.20104 h 52.82514 c 1.21058,0 2.20105,-0.99047 2.20105,-2.20104 V 657.4336 c 0,-1.21057 -0.99047,-2.20104 -2.20105,-2.20104 h -22.20307 c -1.45819,0 -2.86136,-0.57778 -3.8931,-1.60952 l -6.21796,-6.23172 c -0.61904,-0.61904 -1.45819,-0.96296 -2.33861,-0.96296 z"
       id="path1-4"
       style="stroke-width:0.137565" />
    <path
       d="m 598.06553,333.56746 h 18.39135 v 9.19567 h -18.39135 z m -2.29891,-9.19568 c -3.80759,0 -6.89676,3.08917 -6.89676,6.89676 v 13.7935 c 0,3.80759 3.08917,6.89676 6.89676,6.89676 h 6.89675 v 4.59783 h -36.78269 c -2.54317,0 -4.59783,2.05466 -4.59783,4.59784 0,2.54318 2.05466,4.59784 4.59783,4.59784 h 13.79351 v 4.59783 h -6.89675 c -3.80759,0 -6.89676,3.08917 -6.89676,6.89676 v 13.7935 c 0,3.80759 3.08917,6.89676 6.89676,6.89676 h 22.98918 c 3.80758,0 6.89675,-3.08917 6.89675,-6.89676 v -13.7935 c 0,-3.80759 -3.08917,-6.89676 -6.89675,-6.89676 h -6.89676 v -4.59783 h 36.78269 v 4.59783 h -6.89675 c -3.80759,0 -6.89676,3.08917 -6.89676,6.89676 v 13.7935 c 0,3.80759 3.08917,6.89676 6.89676,6.89676 h 22.98917 c 3.80759,0 6.89676,-3.08917 6.89676,-6.89676 v -13.7935 c 0,-3.80759 -3.08917,-6.89676 -6.89676,-6.89676 h -6.89675 v -4.59783 h 13.79351 c 2.54317,0 4.59783,-2.05466 4.59783,-4.59784 0,-2.54318 -2.05466,-4.59784 -4.59783,-4.59784 h -36.78269 v -4.59783 h 6.89676 c 3.80758,0 6.89675,-3.08917 6.89675,-6.89676 v -13.7935 c 0,-3.80759 -3.08917,-6.89676 -6.89675,-6.89676 z m -20.69026,64.3697 v -9.19567 h 18.39134 v 9.19567 z m 45.97835,-9.19567 h 18.39134 v 9.19567 h -18.39134 z"
       id="path1-3"
       style="stroke-width:0.143682" />
    <path
       d="m 124.75296,333.56746 h 18.39135 v 9.19567 h -18.39135 z m -2.29891,-9.19568 c -3.80759,0 -6.89676,3.08917 -6.89676,6.89676 v 13.7935 c 0,3.80759 3.08917,6.89676 6.89676,6.89676 h 6.89675 v 4.59783 H 92.56811 c -2.54317,0 -4.59783,2.05466 -4.59783,4.59784 0,2.54318 2.05466,4.59784 4.59783,4.59784 h 13.79351 v 4.59783 h -6.89675 c -3.80759,0 -6.89676,3.08917 -6.89676,6.89676 v 13.7935 c 0,3.80759 3.08917,6.89676 6.89676,6.89676 h 22.98918 c 3.80758,0 6.89675,-3.08917 6.89675,-6.89676 v -13.7935 c 0,-3.80759 -3.08917,-6.89676 -6.89675,-6.89676 h -6.89676 v -4.59783 h 36.78269 v 4.59783 h -6.89675 c -3.80759,0 -6.89676,3.08917 -6.89676,6.89676 v 13.7935 c 0,3.80759 3.08917,6.89676 6.89676,6.89676 h 22.98917 c 3.80759,0 6.89676,-3.08917 6.89676,-6.89676 v -13.7935 c 0,-3.80759 -3.08917,-6.89676 -6.89676,-6.89676 h -6.89675 v -4.59783 h 13.79351 c 2.54317,0 4.59783,-2.05466 4.59783,-4.59784 0,-2.54318 -2.05466,-4.59784 -4.59783,-4.59784 h -36.78269 v -4.59783 h 6.89676 c 3.80758,0 6.89675,-3.08917 6.89675,-6.89676 v -13.7935 c 0,-3.80759 -3.08917,-6.89676 -6.89675,-6.89676 z m -20.69026,64.3697 v -9.19567 h 18.39134 v 9.19567 z m 45.97835,-9.19567 h 18.39134 v 9.19567 h -18.39134 z"
       id="path1-3-8"
       style="stroke-width:0.143682" />
    <path
       d="m 269.14266,276.87205 c -0.87843,-3.52515 -2.54404,-6.18327 -6.092,-6.18327 h -4.57471 v 5.40751 c 0,4.19823 -3.55937,7.73479 -7.6207,7.73479 h -12.18401 c -3.33121,0 -6.092,2.85206 -6.092,6.19468 v 11.61359 c 0,3.30839 2.87487,5.24779 6.092,6.19468 3.85599,1.12941 7.56367,1.33476 12.18401,0 3.06881,-0.88985 6.092,-2.68094 6.092,-6.19468 v -4.64316 h -12.1726 v -1.55152 h 18.27601 c 3.54796,0 4.85991,-2.47559 6.092,-6.18327 1.27772,-3.82176 1.22068,-7.49521 0,-12.38935 z m -17.52306,23.21578 c 1.26631,0 2.29305,1.03815 2.29305,2.31587 0,1.28913 -1.02674,2.32728 -2.29305,2.32728 -1.25491,0 -2.29306,-1.04956 -2.29306,-2.32728 0.0114,-1.28913 1.03815,-2.31587 2.29306,-2.31587 z m -13.50736,-17.78546 h 12.184 c 3.38825,0 6.092,-2.79502 6.092,-6.19467 v -11.625 c 0,-3.30839 -2.78361,-5.78398 -6.092,-6.34299 -4.08415,-0.67308 -8.52196,-0.63886 -12.184,0.0114 -5.15653,0.91266 -6.09201,2.81784 -6.09201,6.34298 v 4.64316 h 12.19542 v 1.55152 h -16.77012 c -3.54797,0 -6.65101,2.13334 -7.62071,6.18327 -1.11801,4.64316 -1.16364,7.54085 0,12.38935 0.86703,3.60501 2.93192,6.18327 6.47988,6.18327 h 4.18683 v -5.56722 c 0,-4.02711 3.47951,-7.57508 7.62071,-7.57508 z m -0.76436,-16.26815 c -1.26631,0 -2.29305,-1.03815 -2.29305,-2.31588 0.0114,-1.28913 1.02674,-2.32728 2.29305,-2.32728 1.25491,0 2.29306,1.04956 2.29306,2.32728 0,1.27773 -1.02674,2.31588 -2.29306,2.31588 z"
       id="path1-8"
       style="stroke-width:0.114082" />
    <rect
       style="fill:#ffc02a;fill-opacity:1;stroke:#000000;stroke-width:2.49827;stroke-dasharray:none"
       id="rect1-1-8-9"
       width="331.34274"
       height="167.31844"
       x="205.66135"
       y="243.39148"
       ry="21.961466" />
    <rect
       style="fill:none;stroke:#000000;stroke-width:2.49827;stroke-dasharray:4.99654, 4.99654"
       id="rect1-1-1-61"
       width="205.87425"
       height="55.527893"
       x="263.10477"
       y="333.40649"
       ry="21.961466" />
    <text
       xml:space="preserve"
       style="font-size:32px;line-height:1.25;font-family:Comfortaa;-inkscape-font-specification:Comfortaa;text-align:start;text-anchor:start;fill:#000000;fill-opacity:1;stroke:none;stroke-width:2.49827;stroke-dasharray:none"
       x="282.66235"
       y="373.23999"
       id="text1-0-0"><tspan
         sodipodi:role="line"
         id="tspan1-8-42"
         x="282.66235"
         y="373.23999"
         style="font-style:normal;font-variant:normal;font-weight:normal;font-stretch:normal;font-size:32px;font-family:'Fira Code';-inkscape-font-specification:'Fira Code';text-align:start;text-anchor:start">Forwarder</tspan></text>
    <text
       xml:space="preserve"
       style="font-size:40px;line-height:1.25;font-family:Comfortaa;-inkscape-font-specification:Comfortaa;text-align:center;text-anchor:middle;fill:#000000;fill-opacity:1;stroke:none;stroke-width:2.49827;stroke-dasharray:none"
       x="398.95023"
       y="295.45044"
       id="text1-4-0-2"><tspan
         sodipodi:role="line"
         id="tspan1-3-5-2"
         x="398.95023"
         y="295.45044"
         style="font-style:normal;font-variant:normal;font-weight:normal;font-stretch:normal;font-family:'Fira Code';-inkscape-font-specification:'Fira Code'">LSP Server</tspan></text>
    <path
       d="m 269.14266,276.87205 c -0.87843,-3.52515 -2.54404,-6.18327 -6.092,-6.18327 h -4.57471 v 5.40751 c 0,4.19823 -3.55937,7.73479 -7.6207,7.73479 h -12.18401 c -3.33121,0 -6.092,2.85206 -6.092,6.19468 v 11.61359 c 0,3.30839 2.87487,5.24779 6.092,6.19468 3.85599,1.12941 7.56367,1.33476 12.18401,0 3.06881,-0.88985 6.092,-2.68094 6.092,-6.19468 v -4.64316 h -12.1726 v -1.55152 h 18.27601 c 3.54796,0 4.85991,-2.47559 6.092,-6.18327 1.27772,-3.82176 1.22068,-7.49521 0,-12.38935 z m -17.52306,23.21578 c 1.26631,0 2.29305,1.03815 2.29305,2.31587 0,1.28913 -1.02674,2.32728 -2.29305,2.32728 -1.25491,0 -2.29306,-1.04956 -2.29306,-2.32728 0.0114,-1.28913 1.03815,-2.31587 2.29306,-2.31587 z m -13.50736,-17.78546 h 12.184 c 3.38825,0 6.092,-2.79502 6.092,-6.19467 v -11.625 c 0,-3.30839 -2.78361,-5.78398 -6.092,-6.34299 -4.08415,-0.67308 -8.52196,-0.63886 -12.184,0.0114 -5.15653,0.91266 -6.09201,2.81784 -6.09201,6.34298 v 4.64316 h 12.19542 v 1.55152 h -16.77012 c -3.54797,0 -6.65101,2.13334 -7.62071,6.18327 -1.11801,4.64316 -1.16364,7.54085 0,12.38935 0.86703,3.60501 2.93192,6.18327 6.47988,6.18327 h 4.18683 v -5.56722 c 0,-4.02711 3.47951,-7.57508 7.62071,-7.57508 z m -0.76436,-16.26815 c -1.26631,0 -2.29305,-1.03815 -2.29305,-2.31588 0.0114,-1.28913 1.02674,-2.32728 2.29305,-2.32728 1.25491,0 2.29306,1.04956 2.29306,2.32728 0,1.27773 -1.02674,2.31588 -2.29306,2.31588 z"
       id="path1-8-0"
       style="stroke-width:0.114082" />
    <rect
       style="fill:#ffc02a;fill-opacity:1;stroke:#000000;stroke-width:2.49827;stroke-dasharray:none"
       id="rect1-1-8-90"
       width="331.34274"
       height="167.31844"
       x="681.72028"
       y="243.39148"
       ry="21.961466" />
    <rect
       style="fill:none;stroke:#000000;stroke-width:2.49827;stroke-dasharray:4.99654, 4.99654"
       id="rect1-1-1-2"
       width="205.87425"
       height="55.527893"
       x="739.1637"
       y="333.40649"
       ry="21.961466" />
    <text
       xml:space="preserve"
       style="font-size:32px;line-height:1.25;font-family:Comfortaa;-inkscape-font-specification:Comfortaa;text-align:start;text-anchor:start;fill:#000000;fill-opacity:1;stroke:none;stroke-width:2.49827;stroke-dasharray:none"
       x="758.72131"
       y="373.23999"
       id="text1-0-8"><tspan
         sodipodi:role="line"
         id="tspan1-8-3"
         x="758.72131"
         y="373.23999"
         style="font-style:normal;font-variant:normal;font-weight:normal;font-stretch:normal;font-size:32px;font-family:'Fira Code';-inkscape-font-specification:'Fira Code';text-align:start;text-anchor:start">Forwarder</tspan></text>
    <text
       xml:space="preserve"
       style="font-size:40px;line-height:1.25;font-family:Comfortaa;-inkscape-font-specification:Comfortaa;text-align:center;text-anchor:middle;fill:#000000;fill-opacity:1;stroke:none;stroke-width:2.49827;stroke-dasharray:none"
       x="875.00916"
       y="295.45044"
       id="text1-4-0-8"><tspan
         sodipodi:role="line"
         id="tspan1-3-5-0"
         x="875.00916"
         y="295.45044"
         style="font-style:normal;font-variant:normal;font-weight:normal;font-stretch:normal;font-family:'Fira Code';-inkscape-font-specification:'Fira Code'">LSP Server</tspan></text>
    <path
       d="m 745.20159,276.87205 c -0.87843,-3.52515 -2.54404,-6.18327 -6.092,-6.18327 h -4.57471 v 5.40751 c 0,4.19823 -3.55937,7.73479 -7.6207,7.73479 h -12.18401 c -3.33121,0 -6.092,2.85206 -6.092,6.19468 v 11.61359 c 0,3.30839 2.87487,5.24779 6.092,6.19468 3.85599,1.12941 7.56367,1.33476 12.18401,0 3.06881,-0.88985 6.092,-2.68094 6.092,-6.19468 v -4.64316 h -12.1726 v -1.55152 h 18.27601 c 3.54796,0 4.85991,-2.47559 6.092,-6.18327 1.27772,-3.82176 1.22068,-7.49521 0,-12.38935 z m -17.52306,23.21578 c 1.26631,0 2.29305,1.03815 2.29305,2.31587 0,1.28913 -1.02674,2.32728 -2.29305,2.32728 -1.25491,0 -2.29306,-1.04956 -2.29306,-2.32728 0.0114,-1.28913 1.03815,-2.31587 2.29306,-2.31587 z m -13.50736,-17.78546 h 12.184 c 3.38825,0 6.092,-2.79502 6.092,-6.19467 v -11.625 c 0,-3.30839 -2.78361,-5.78398 -6.092,-6.34299 -4.08415,-0.67308 -8.52196,-0.63886 -12.184,0.0114 -5.15653,0.91266 -6.09201,2.81784 -6.09201,6.34298 v 4.64316 h 12.19542 v 1.55152 h -16.77012 c -3.54797,0 -6.65101,2.13334 -7.62071,6.18327 -1.11801,4.64316 -1.16364,7.54085 0,12.38935 0.86703,3.60501 2.93192,6.18327 6.47988,6.18327 h 4.18683 v -5.56722 c 0,-4.02711 3.47951,-7.57508 7.62071,-7.57508 z m -0.76436,-16.26815 c -1.26631,0 -2.29305,-1.03815 -2.29305,-2.31588 0.0114,-1.28913 1.02674,-2.32728 2.29305,-2.32728 1.25491,0 2.29306,1.04956 2.29306,2.32728 0,1.27773 -1.02674,2.31588 -2.29306,2.31588 z"
       id="path1-8-4"
       style="stroke-width:0.114082" />
    <rect
       style="fill:#ffc02a;fill-opacity:1;stroke:#000000;stroke-width:2.49827;stroke-dasharray:none"
       id="rect1-1-8-9-0"
       width="331.34274"
       height="167.31844"
       x="681.72028"
       y="243.39148"
       ry="21.961466" />
    <rect
       style="fill:none;stroke:#000000;stroke-width:2.49827;stroke-dasharray:4.99654, 4.99654"
       id="rect1-1-1-61-9"
       width="246.89032"
       height="55.527893"
       x="725.1637"
       y="333.40649"
       ry="21.961466" />
    <text
       xml:space="preserve"
       style="font-size:32px;line-height:1.25;font-family:Comfortaa;-inkscape-font-specification:Comfortaa;text-align:center;text-anchor:middle;fill:#000000;fill-opacity:1;stroke:none;stroke-width:2.49827;stroke-dasharray:none"
       x="850.37061"
       y="373.23999"
       id="text1-0-0-1"><tspan
         sodipodi:role="line"
         id="tspan1-8-42-9"
         x="850.37061"
         y="373.23999"
         style="font-style:normal;font-variant:normal;font-weight:normal;font-stretch:normal;font-size:32px;font-family:'Fira Code';-inkscape-font-specification:'Fira Code';text-align:center;text-anchor:middle">Code Smarts</tspan></text>
    <text
       xml:space="preserve"
       style="font-size:40px;line-height:1.25;font-family:Comfortaa;-inkscape-font-specification:Comfortaa;text-align:center;text-anchor:middle;fill:#000000;fill-opacity:1;stroke:none;stroke-width:2.49827;stroke-dasharray:none"
       x="875.00916"
       y="295.45044"
       id="text1-4-0-2-6"><tspan
         sodipodi:role="line"
         id="tspan1-3-5-2-2"
         x="875.00916"
         y="295.45044"
         style="font-style:normal;font-variant:normal;font-weight:normal;font-stretch:normal;font-family:'Fira Code';-inkscape-font-specification:'Fira Code'">LSP Server</tspan></text>
    <path
       d="m 745.20159,276.87205 c -0.87843,-3.52515 -2.54404,-6.18327 -6.092,-6.18327 h -4.57471 v 5.40751 c 0,4.19823 -3.55937,7.73479 -7.6207,7.73479 h -12.18401 c -3.33121,0 -6.092,2.85206 -6.092,6.19468 v 11.61359 c 0,3.30839 2.87487,5.24779 6.092,6.19468 3.85599,1.12941 7.56367,1.33476 12.18401,0 3.06881,-0.88985 6.092,-2.68094 6.092,-6.19468 v -4.64316 h -12.1726 v -1.55152 h 18.27601 c 3.54796,0 4.85991,-2.47559 6.092,-6.18327 1.27772,-3.82176 1.22068,-7.49521 0,-12.38935 z m -17.52306,23.21578 c 1.26631,0 2.29305,1.03815 2.29305,2.31587 0,1.28913 -1.02674,2.32728 -2.29305,2.32728 -1.25491,0 -2.29306,-1.04956 -2.29306,-2.32728 0.0114,-1.28913 1.03815,-2.31587 2.29306,-2.31587 z m -13.50736,-17.78546 h 12.184 c 3.38825,0 6.092,-2.79502 6.092,-6.19467 v -11.625 c 0,-3.30839 -2.78361,-5.78398 -6.092,-6.34299 -4.08415,-0.67308 -8.52196,-0.63886 -12.184,0.0114 -5.15653,0.91266 -6.09201,2.81784 -6.09201,6.34298 v 4.64316 h 12.19542 v 1.55152 h -16.77012 c -3.54797,0 -6.65101,2.13334 -7.62071,6.18327 -1.11801,4.64316 -1.16364,7.54085 0,12.38935 0.86703,3.60501 2.93192,6.18327 6.47988,6.18327 h 4.18683 v -5.56722 c 0,-4.02711 3.47951,-7.57508 7.62071,-7.57508 z m -0.76436,-16.26815 c -1.26631,0 -2.29305,-1.03815 -2.29305,-2.31588 0.0114,-1.28913 1.02674,-2.32728 2.29305,-2.32728 1.25491,0 2.29306,1.04956 2.29306,2.32728 0,1.27773 -1.02674,2.31588 -2.29306,2.31588 z"
       id="path1-8-0-5"
       style="stroke-width:0.114082" />
    <path
       d="m -148.64128,375.43867 c -0.66026,0 -1.20048,-0.54022 -1.20048,-1.20047 v -28.81136 c 0,-0.66026 0.54022,-1.20047 1.20048,-1.20047 h 12.00473 v 6.00236 c 0,1.32803 1.07292,2.40095 2.40094,2.40095 h 6.00237 v 21.60852 c 0,0.66025 -0.54022,1.20047 -1.20048,1.20047 z m 0,-34.81372 c -2.64855,0 -4.8019,2.15335 -4.8019,4.80189 v 28.81136 c 0,2.64854 2.15335,4.80189 4.8019,4.80189 h 19.20756 c 2.64855,0 4.8019,-2.15335 4.8019,-4.80189 v -22.02118 c 0,-1.2755 -0.5027,-2.49848 -1.40306,-3.39884 l -6.79767,-6.79017 c -0.90036,-0.90036 -2.11584,-1.40306 -3.39134,-1.40306 z m 4.20165,19.20757 c -0.99789,0 -1.80071,0.80282 -1.80071,1.80071 0,0.99789 0.80282,1.80071 1.80071,1.80071 h 10.80426 c 0.99789,0 1.80071,-0.80282 1.80071,-1.80071 0,-0.99789 -0.80282,-1.80071 -1.80071,-1.80071 z m 0,7.20284 c -0.99789,0 -1.80071,0.80281 -1.80071,1.80071 0,0.99789 0.80282,1.8007 1.80071,1.8007 h 10.80426 c 0.99789,0 1.80071,-0.80281 1.80071,-1.8007 0,-0.9979 -0.80282,-1.80071 -1.80071,-1.80071 z"
       id="path1-2"
       style="stroke-width:0.0750293" />
    <path
       style="fill:none;fill-opacity:1;stroke:#000000;stroke-width:2.49827;stroke-dasharray:none;stroke-opacity:1;marker-start:url(#DartArrow);marker-end:url(#marker3)"
       d="M 487.22893,361.01711 H 706.30499"
       id="path2"
       sodipodi:nodetypes="cc" />
    <path
       style="fill:none;fill-opacity:1;stroke:#000000;stroke-width:2.49827;stroke-dasharray:none;stroke-opacity:1;marker-start:url(#DartArrow-4);marker-end:url(#marker3-3)"
       d="M 58.351296,361.01711 H 246.55418"
       id="path2-9"
       sodipodi:nodetypes="cc" />
  </g>
</svg>
